<svg width="54" height="41" viewBox="0 0 54 41" fill="none" xmlns="http://www.w3.org/2000/svg">
<path opacity="0.2" fill-rule="evenodd" clip-rule="evenodd" d="M49 10H53C53.5523 10 54 10.4477 54 11V38C54 38.5523 53.5523 39 53 39H49C48.8991 39 48.8016 38.985 48.7098 38.9572C50.7187 37.3066 52 34.8029 52 32C52 28.8796 50.412 26.1301 48 24.5155V11C48 10.4477 48.4477 10 49 10ZM46 23.5121V14C46 13.4477 45.5523 13 45 13H41C40.4477 13 40 13.4477 40 14V23.5121C40.9383 23.1805 41.9481 23 43 23C44.0519 23 45.0617 23.1805 46 23.5121ZM38 24.5155V14C38 13.4477 37.5523 13 37 13H33C32.4477 13 32 13.4477 32 14V38C32 38.5523 32.4477 39 33 39H37C37.1009 39 37.1984 38.985 37.2902 38.9572C35.2813 37.3066 34 34.8029 34 32C34 28.8796 35.588 26.1301 38 24.5155ZM29 17H25C24.4477 17 24 17.4477 24 18V38C24 38.5523 24.4477 39 25 39H29C29.5523 39 30 38.5523 30 38V18C30 17.4477 29.5523 17 29 17ZM17 21H21C21.5523 21 22 21.4477 22 22V38C22 38.5523 21.5523 39 21 39H17C16.4477 39 16 38.5523 16 38V22C16 21.4477 16.4477 21 17 21ZM13 28H9C8.44772 28 8 28.4477 8 29V38C8 38.5523 8.44772 39 9 39H13C13.5523 39 14 38.5523 14 38V29C14 28.4477 13.5523 28 13 28ZM5 32H1C0.447715 32 0 32.4477 0 33V38C0 38.5523 0.447715 39 1 39H5C5.55228 39 6 38.5523 6 38V33C6 32.4477 5.55228 32 5 32Z" fill="white"/>
<circle cx="43" cy="32" r="8.75" stroke="white" stroke-opacity="0.5" stroke-width="0.5"/>
<path d="M45.104 33.899C45.104 34.5003 44.939 34.9843 44.609 35.351C44.279 35.7177 43.795 35.945 43.157 36.033V36.583C43.157 36.715 43.0617 36.781 42.871 36.781H42.816C42.6253 36.781 42.53 36.715 42.53 36.583V36.066C42.0533 36.0587 41.5913 35.9743 41.144 35.813C40.9093 35.7323 40.7223 35.6407 40.583 35.538C40.451 35.4353 40.385 35.3437 40.385 35.263C40.385 35.175 40.4327 35.054 40.528 34.9C40.6307 34.746 40.7113 34.669 40.77 34.669C40.7847 34.669 40.814 34.6837 40.858 34.713C40.902 34.735 40.9497 34.7607 41.001 34.79C41.2503 34.9147 41.4887 35.0173 41.716 35.098C41.9433 35.1713 42.2147 35.2117 42.53 35.219V32.425H42.519C41.8223 32.1463 41.3163 31.8347 41.001 31.49C40.6857 31.1453 40.528 30.7347 40.528 30.258C40.528 29.7153 40.7003 29.268 41.045 28.916C41.3897 28.564 41.8847 28.3587 42.53 28.3V27.849C42.53 27.717 42.6253 27.651 42.816 27.651H42.871C43.0617 27.651 43.157 27.717 43.157 27.849V28.289C43.3917 28.3037 43.6227 28.3403 43.85 28.399C44.0847 28.4503 44.2827 28.5163 44.444 28.597C44.642 28.6923 44.741 28.795 44.741 28.905C44.741 28.9857 44.6933 29.103 44.598 29.257C44.51 29.411 44.4403 29.488 44.389 29.488C44.3597 29.488 44.3083 29.4697 44.235 29.433C44.1617 29.3963 44.0993 29.3633 44.048 29.334C43.762 29.202 43.465 29.1177 43.157 29.081V31.644C43.8317 31.9447 44.323 32.2747 44.631 32.634C44.9463 32.9933 45.104 33.415 45.104 33.899ZM41.452 30.214C41.452 30.4853 41.5437 30.709 41.727 30.885C41.9103 31.0537 42.178 31.215 42.53 31.369V29.092C42.1927 29.1433 41.9287 29.268 41.738 29.466C41.5473 29.6567 41.452 29.906 41.452 30.214ZM43.157 35.164C43.4797 35.1053 43.7253 34.988 43.894 34.812C44.07 34.6287 44.158 34.361 44.158 34.009C44.158 33.6937 44.07 33.437 43.894 33.239C43.7253 33.0337 43.4797 32.854 43.157 32.7V35.164Z" fill="white" fill-opacity="0.5"/>
<circle cx="1.5" cy="26.5" r="1.25" stroke="white" stroke-opacity="0.5" stroke-width="0.5"/>
<path d="M2.5 24.5L8.5 11M12 9.5L15 10.5M20 10.5L23.5 8M28 6.5L31 7M35.5 6L39.5 3M44 1.5H47" stroke="white" stroke-opacity="0.2" stroke-width="0.25" stroke-linecap="round"/>
<circle cx="9.5" cy="8.5" r="1.25" stroke="white" stroke-opacity="0.5" stroke-width="0.5"/>
<circle cx="17.5" cy="11.5" r="1.25" stroke="white" stroke-opacity="0.5" stroke-width="0.5"/>
<circle cx="25.5" cy="6.5" r="1.25" stroke="white" stroke-opacity="0.5" stroke-width="0.5"/>
<circle cx="33.5" cy="7.5" r="1.25" stroke="white" stroke-opacity="0.5" stroke-width="0.5"/>
<circle cx="41.5" cy="1.5" r="1.25" stroke="white" stroke-opacity="0.5" stroke-width="0.5"/>
<circle cx="49.5" cy="1.5" r="1.25" stroke="white" stroke-opacity="0.5" stroke-width="0.5"/>
</svg>
