<svg width="76" height="56" viewBox="0 0 76 56" fill="none" xmlns="http://www.w3.org/2000/svg">
<path d="M62.0853 32.3803V32.3666C62.0853 31.73 61.7822 31.1314 61.2691 30.7546L59.253 29.274C59.047 29.1227 58.8143 29.0122 58.5658 28.952C57.7423 28.7524 55.769 28.2988 54.7489 28.2752C53.6957 28.2509 49.2563 29.7579 47.5554 30.3499C47.2289 30.4636 46.8918 30.2217 46.9034 29.8761C46.9693 27.9194 47.325 22.4599 49.2465 20.5782C51.6045 18.269 55.0219 17.6387 58.9411 17.4995C61.9346 17.3933 64.9674 17.4995 66.5395 18.5258C68.8846 20.0568 70.5282 31.428 70.7141 32.7651C70.7263 32.8527 70.7317 32.9378 70.7317 33.0262V35.0333C70.7317 35.4757 70.585 35.9055 70.3147 36.2556L62.8942 45.8658C62.7068 46.1085 62.466 46.3049 62.1906 46.4397L59.4291 47.7918C59.1095 47.9482 58.7541 48.0166 58.3993 47.9899L55.5348 47.774M62.0853 32.3803L59.727 30.5842M62.0853 32.3803C62.1006 32.7856 61.9774 32.8919 61.5611 32.8934M48.4604 51.3659C48.4604 51.3659 44.2477 45.3574 44.2684 41.6166C44.2795 39.5895 45.3094 36.8425 45.8208 35.602C45.9968 35.1749 46.3291 34.8349 46.744 34.6318L53.7582 31.1977C54.2255 30.9689 54.7636 30.9312 55.2582 31.0926L56.0589 31.354L59.6843 32.9071C60.0536 33.0653 60.462 33.1087 60.8563 33.0314L61.5611 32.8934M65.2294 28.2752L66.3902 34.1858C66.4862 34.6749 66.3963 35.1821 66.1379 35.6082L62.1074 42.2553C61.7683 42.8144 61.1618 43.156 60.5079 43.156V43.156C60.3375 43.156 60.168 43.1792 60.0039 43.2251L57.0358 44.0554C56.7898 44.1242 56.6521 44.3855 56.7344 44.6274V44.6274C56.7995 44.8186 56.9852 44.942 57.1867 44.9279L58.2239 44.8553C58.8095 44.8144 59.0564 45.5867 58.5557 45.8931V45.8931C58.4637 45.9494 58.364 45.9922 58.2597 46.02L55.6206 46.725C55.5638 46.7401 55.5098 46.7642 55.4606 46.7963V46.7963C55.1252 47.0152 55.1251 47.5066 55.4605 47.7255L55.5348 47.774M66.5393 43.4124C66.5393 43.4124 66.7569 45.5646 66.5393 46.7479C66.2633 48.2498 64.7053 49.8266 64.7053 49.8266M61.5611 32.8934L59.203 31.354M55.5348 47.774L58.9411 47.2609M58.4169 13.9075C57.3689 15.1903 55.2728 16.7297 54.2247 16.2166C53.4836 15.8538 51.3426 13.1378 51.3426 12.3681C51.3426 11.0853 50.5237 11.213 50.2945 10.3156C50.0325 9.28935 50.2945 8.00657 51.0806 6.72375C51.8431 5.47923 53.4388 4.41467 55.5348 4.41467C57.8929 4.41467 58.4169 5.95406 59.203 7.75001C59.338 8.05854 59.4624 8.37324 59.5878 8.68734C59.647 8.83546 59.8967 8.90396 60.0502 8.8605C60.4956 8.73434 61.2518 8.72997 61.5611 9.03283C62.0851 9.54596 62.6091 11.5985 61.8231 12.1116C61.1943 12.5221 60.4257 12.4536 59.989 12.3681" stroke="white" stroke-opacity="0.6" stroke-width="0.5" stroke-linecap="round"/>
<path d="M41.6313 36.5531C41.6313 36.5531 41.0803 37.4682 40.6187 38.9393M45.6797 55.6341C45.6797 55.6341 43.6356 52.798 42 49.4635M70.7542 42.8922L74.544 38.2893C74.8388 37.9312 75 37.4819 75 37.0181V35.0131C75 34.9174 74.9944 34.8304 74.9802 34.7357C74.7492 33.1949 72.5152 18.8152 69.3202 16.7861C67.9526 15.9175 65.7691 14.6953 63.3077 14.5798M71.2071 45.0673C71.2071 45.0673 71.5018 47.9038 71.2071 49.4635C70.833 51.4431 68.7222 53.5213 68.7222 53.5213M62.7343 14.5956C63.206 14.5956 64.6213 13.6579 65.0931 12.7203C66.0366 10.8451 65.252 8.03219 64.1495 7.08688C63.6859 6.68935 62.7716 6.70577 62.2774 6.89202C62.1301 6.94754 61.8984 6.89762 61.8384 6.75203C61.6515 6.29811 61.4682 5.84221 61.2675 5.39608C60.2025 3.02896 58.549 1 55.3542 1C52.5145 1 49.4091 2.40312 48.3759 4.04344C47.3109 5.73424 46.6511 8.41322 47.1662 10.3762C47.4767 11.5591 48.3759 12.1746 48.3759 13.1891C48.3759 14.2036 48.9357 15.155 49.8171 15.939C50.0913 16.183 47.1792 18.2639 45.891 19.4912C45.0352 20.3064 44.4087 21.6313 43.95 23.1342M42 49.4635L27 55.6341M42 49.4635C41.4683 48.3796 40.9798 47.2431 40.6187 46.1342M40.6187 46.1342C40.2344 44.9539 39.9943 43.805 40.0001 42.7842C40.0016 42.5236 40.0116 42.2676 40.0289 42.0171M40.6187 46.1342L2 54.6342M40.0289 42.0171C40.1097 40.849 40.3489 39.7992 40.6187 38.9393M40.0289 42.0171L1 44.6342M40.6187 38.9393L2.5 34.8694M40.0001 34.8694L6.5 25.6342M12.5 17.1342L41.9674 32.3044C42.3002 32.4757 42.7008 32.235 42.7127 31.861C42.7389 31.0401 42.8067 29.6788 42.9822 28.1342M42.9822 28.1342L21.5 10.3762M42.9822 28.1342C43.1642 26.5319 43.4622 24.7323 43.95 23.1342M43.95 23.1342L31 7.08688" stroke="white" stroke-opacity="0.2" stroke-width="0.25" stroke-linecap="round"/>
<g opacity="0.44" filter="url(#filter0_f)">
<path d="M45.1599 46.0902C46.5043 51.3306 51.5518 46.4493 54.3064 43.1795C57.0611 39.9098 57.5261 34.8555 55.3359 33.0104C53.1458 31.1653 50.0072 32.1171 46.3826 35.5899C43.9375 37.9327 43.9962 41.5541 45.1599 46.0902Z" fill="url(#paint0_radial)"/>
</g>
<g opacity="0.44" filter="url(#filter1_f)">
<path d="M51.5244 12.5244C52.1383 14.9173 54.939 16.7927 54.5122 11.2439C54.5122 10.3903 55.939 5.68408 54.9389 4.84156C53.9389 3.99903 51.626 5.69514 50.9717 7.12867C49.3903 10.5943 50.9931 10.4531 51.5244 12.5244Z" fill="url(#paint1_radial)"/>
</g>
<path d="M54.939 10.817C54.939 10.817 54.4492 11.163 54.0854 11.2438C53.7599 11.3162 53.6585 11.2438 53.6585 11.2438" stroke="white" stroke-opacity="0.5" stroke-width="0.5" stroke-linecap="round"/>
<defs>
<filter id="filter0_f" x="40.382" y="28.0873" width="20.3357" height="24.3088" filterUnits="userSpaceOnUse" color-interpolation-filters="sRGB">
<feFlood flood-opacity="0" result="BackgroundImageFix"/>
<feBlend mode="normal" in="SourceGraphic" in2="BackgroundImageFix" result="shape"/>
<feGaussianBlur stdDeviation="2" result="effect1_foregroundBlur"/>
</filter>
<filter id="filter1_f" x="46.2921" y="0.616821" width="13.0024" height="18.2495" filterUnits="userSpaceOnUse" color-interpolation-filters="sRGB">
<feFlood flood-opacity="0" result="BackgroundImageFix"/>
<feBlend mode="normal" in="SourceGraphic" in2="BackgroundImageFix" result="shape"/>
<feGaussianBlur stdDeviation="2" result="effect1_foregroundBlur"/>
</filter>
<radialGradient id="paint0_radial" cx="0" cy="0" r="1" gradientUnits="userSpaceOnUse" gradientTransform="translate(45.7805 37.7441) rotate(55.7025) scale(9.01393 12.8056)">
<stop stop-color="#C4C4C4" stop-opacity="0.37"/>
<stop offset="1" stop-color="#C4C4C4" stop-opacity="0"/>
</radialGradient>
<radialGradient id="paint1_radial" cx="0" cy="0" r="1" gradientUnits="userSpaceOnUse" gradientTransform="translate(50.6968 8.11227) rotate(55.7025) scale(4.11599 5.84737)">
<stop stop-color="#C4C4C4" stop-opacity="0.37"/>
<stop offset="1" stop-color="#C4C4C4" stop-opacity="0"/>
</radialGradient>
</defs>
</svg>
