<svg width="70" height="72" viewBox="0 0 70 72" fill="none" xmlns="http://www.w3.org/2000/svg">
<path d="M35.7361 60.2965V60.2965C35.7361 56.4809 33.2301 53.1184 29.5737 52.0279L26.3257 51.0592C25.7845 50.8978 25.3475 50.4968 25.1402 49.9714V49.9714C24.9635 49.5234 24.9695 49.0239 25.157 48.5803L25.7705 47.1289L26.1466 46.1755C26.293 45.8042 26.293 45.3913 26.1466 45.02L25.9873 44.6164C25.8555 44.2822 25.9332 43.9017 26.1854 43.6459V43.6459C26.4748 43.3524 26.5302 42.9008 26.3203 42.5462L26.2967 42.5061C26.0118 42.0246 26.1931 41.4026 26.6921 41.1496L26.7193 41.1358C26.8885 41.05 27.0298 40.9177 27.1264 40.7544L27.1815 40.6613C27.5686 40.0069 27.3479 39.1624 26.69 38.7812L26.487 38.6636C26.0624 38.4176 25.8512 37.9208 25.9687 37.4444V37.4444C26.0354 37.1738 26.2019 36.9386 26.4349 36.7857L29.8279 34.5595C30.6881 33.995 31.2063 33.0245 31.2063 31.9956V31.9956C31.2063 31.4809 31.339 30.9697 31.5918 30.5212L32.3056 29.2544C33.1769 27.7084 34.3068 26.3231 35.6462 25.1589L35.8315 24.9979C37.1655 23.8384 38.704 22.9379 40.3681 22.3423V22.3423C42.0956 21.724 43.9264 21.446 45.7596 21.5234L47.0365 21.5774C49.1421 21.6663 51.2042 22.2055 53.0839 23.1585L53.1918 23.2132C55.2156 24.2393 56.9651 25.7338 58.2947 27.5724V27.5724C59.1553 28.7623 59.8287 30.0841 60.2872 31.4791V31.4791C60.6278 32.515 60.8504 33.591 60.9478 34.6772L60.9721 34.9487C61.0592 35.9204 61.0345 36.8989 60.8984 37.865V37.865C60.6356 39.7306 59.9624 41.5147 58.9274 43.089L58.6717 43.4779C58.28 44.0737 57.8457 44.6406 57.3723 45.1739L55.3654 47.4351L53.4478 49.1635C52.917 49.642 52.4571 50.1937 52.0822 50.8021V50.8021C51.4612 51.8095 51.087 52.9494 50.9901 54.1289L50.9268 54.8987C50.8662 55.6368 50.8877 56.3794 50.991 57.1128L51.4396 60.2965M32.7162 34.8799L32.726 34.9297C32.8958 35.7905 33.6507 36.4111 34.5282 36.4111V36.4111H35.7361M38.1226 28.4001L38.5099 28.8843C39.3824 29.9749 40.7033 30.6097 42.1 30.6097V30.6097M38.1226 28.4001L38.3289 27.9874C38.7623 27.1206 39.5258 26.4641 40.4478 26.1656V26.1656C40.7878 26.0554 41.1097 25.8955 41.4028 25.6909L41.5895 25.5605C42.0447 25.2428 42.5484 25.0009 43.081 24.8443L43.1865 24.8132C44.6081 24.395 46.1358 24.5353 47.4574 25.2054L47.8157 25.387M38.1226 28.4001L37.6952 28.8248C36.9684 29.5472 36.6485 30.5838 36.8419 31.5902V31.5902C37.0812 32.8355 38.0593 33.8068 39.3063 34.0373L39.8903 34.1452M47.8157 25.387V26.6119M47.8157 25.387L48.366 25.294C49.1979 25.1534 50.05 25.1879 50.8679 25.3952L50.9621 25.4191C52.4304 25.7913 53.696 26.7206 54.4907 28.01V28.01C54.6708 28.3023 54.8248 28.6099 54.9508 28.9292L55.3654 29.9804M47.8157 26.6119L46.0037 27.2244M47.8157 26.6119L48.0863 26.6805C48.67 26.8285 49.1376 27.2647 49.3256 27.8368V27.8368M55.3654 29.9804L54.529 29.7683C53.5029 29.5082 52.4205 29.5825 51.4396 29.9804V29.9804M55.3654 29.9804V29.9804C56.1464 30.3763 56.7656 31.0313 57.1171 31.8332L57.2177 32.0628C57.5846 32.9001 57.6865 33.8295 57.5096 34.7264L57.4793 34.8799M51.4396 29.9804L51.3288 29.9355C50.4047 29.5606 49.4169 29.3679 48.4197 29.3679V29.3679M51.4396 29.9804L51.602 30.9689C51.6897 31.5023 51.5171 32.0453 51.1376 32.4302V32.4302M57.4793 34.8799L54.7614 33.6551M57.4793 34.8799L57.558 35.199C57.7054 35.7967 57.7299 36.418 57.63 37.0254V37.0254C57.5306 37.6304 57.3099 38.2089 56.9812 38.7264L56.2419 39.8904M56.2419 39.8904L54.7614 37.3297M56.2419 39.8904L55.7572 40.8452C55.501 41.3498 55.1105 41.774 54.6288 42.0711L53.9175 42.5097C53.4402 42.804 52.8437 42.8266 52.3455 42.5694V42.5694M47.4032 38.5646V38.5646C48.2689 40.0074 49.5301 41.1719 51.0372 41.92L52.3455 42.5694M47.4032 38.5646L48.729 37.2388M47.4032 38.5646L45.0978 37.6359M45.0978 37.6359L45.1227 37.8586C45.3046 39.483 45.882 41.038 46.8041 42.3875L47.2944 43.1049M45.0978 37.6359L43.8677 37.7512M39.8903 34.1452L40.8986 36.1192C41.4608 37.2199 42.6372 37.8665 43.8677 37.7512V37.7512M39.8903 34.1452V34.1452C41.3209 33.2869 43.0006 32.94 44.6541 33.1615L45.3998 33.2614M42.5419 28.4001L44.3022 28.7044C44.8265 28.7951 45.3251 28.9974 45.7644 29.2976V29.2976C46.6808 29.9238 47.2689 30.9271 47.3677 32.0326L47.3887 32.2677C47.3984 32.3758 47.3984 32.4845 47.3887 32.5926V32.5926C47.2935 33.6581 48.131 34.5767 49.2007 34.5801L50.2619 34.5836C50.9758 34.5859 51.6569 34.8831 52.144 35.4049L52.3458 35.6211C52.7293 36.0319 52.9155 36.5888 52.8564 37.1476V37.1476C52.7672 37.9906 52.1404 38.6778 51.3092 38.844L50.4968 39.0065M52.3455 42.5694L51.9301 42.9528C51.2927 43.5411 50.457 43.8678 49.5895 43.8678V43.8678C49.0245 43.8678 48.4681 43.7291 47.9692 43.4638L47.2944 43.1049M43.8677 37.7512L45.3998 43.4259L46.0774 47.4033M47.2944 43.1049L47.8157 47.4033" stroke="white" stroke-opacity="0.6" stroke-width="0.5" stroke-linecap="round"/>
<path opacity="0.44" d="M51.3912 51.7378C49.87 67.8626 36.0559 54.7753 32.2241 47.1742C28.3923 39.5731 30.519 27.2171 38.0047 23.4435C45.4903 19.6699 56.3497 21.4224 59.3828 29.376C64.7778 43.5233 53.5209 48.0869 51.3912 51.7378Z" fill="url(#paint0_radial)"/>
<g opacity="0.44" filter="url(#filter0_f)">
<path d="M27.6064 51.9164C20.3716 49.638 29.4038 43.0758 35.2261 39.5437C41.0483 36.0116 48.6675 35.7806 50.5899 38.9494C52.5123 42.1183 49.9669 46.3677 43.5286 51.0826C39.1853 54.2632 33.8688 53.8886 27.6064 51.9164Z" fill="url(#paint1_radial)"/>
</g>
<g opacity="0.44" filter="url(#filter1_f)">
<path d="M46.8079 65.2905C40.8987 70.046 40.4496 58.8907 40.7407 52.087C38.3089 33.7876 68.1243 37.7427 55.3462 46.8699C59.0492 47.0284 50.4314 47.4163 50.7826 55.3887C51.0194 60.7668 51.9229 61.1741 46.8079 65.2905Z" fill="url(#paint2_radial)"/>
</g>
<path d="M68.6161 20.2463C62.4994 13.834 53.8711 9.83875 44.3097 9.83875C25.7601 9.83875 10.7226 24.8762 10.7226 43.4258C10.7226 49.912 12.5611 55.9687 15.7455 61.1033" stroke="white" stroke-opacity="0.5" stroke-width="0.5" stroke-linecap="round"/>
<path d="M4.47284 61.5452C2.23772 56.2937 1 50.5084 1 44.4316C1 20.445 20.2847 1 44.0735 1C53.5836 1 62.3739 4.10765 69.5 9.37077" stroke="white" stroke-opacity="0.2" stroke-width="0.25" stroke-linecap="round"/>
<defs>
<filter id="filter0_f" x="20.9193" y="32.7241" width="34.2968" height="24.7115" filterUnits="userSpaceOnUse" color-interpolation-filters="sRGB">
<feFlood flood-opacity="0" result="BackgroundImageFix"/>
<feBlend mode="normal" in="SourceGraphic" in2="BackgroundImageFix" result="shape"/>
<feGaussianBlur stdDeviation="2" result="effect1_foregroundBlur"/>
</filter>
<filter id="filter1_f" x="35.8918" y="34.6952" width="26.7879" height="36.3086" filterUnits="userSpaceOnUse" color-interpolation-filters="sRGB">
<feFlood flood-opacity="0" result="BackgroundImageFix"/>
<feBlend mode="normal" in="SourceGraphic" in2="BackgroundImageFix" result="shape"/>
<feGaussianBlur stdDeviation="2" result="effect1_foregroundBlur"/>
</filter>
<radialGradient id="paint0_radial" cx="0" cy="0" r="1" gradientUnits="userSpaceOnUse" gradientTransform="translate(59.4681 33.4358) rotate(167.605) scale(22.3113 23.1276)">
<stop stop-color="#C4C4C4"/>
<stop offset="1" stop-color="#C4C4C4" stop-opacity="0"/>
</radialGradient>
<radialGradient id="paint1_radial" cx="0" cy="0" r="1" gradientUnits="userSpaceOnUse" gradientTransform="translate(40.1343 51.7378) rotate(-140.194) scale(11.881 20.028)">
<stop stop-color="#C4C4C4" stop-opacity="0.37"/>
<stop offset="1" stop-color="#C4C4C4" stop-opacity="0"/>
</radialGradient>
<radialGradient id="paint2_radial" cx="0" cy="0" r="1" gradientUnits="userSpaceOnUse" gradientTransform="translate(52.3039 53.8675) rotate(162.553) scale(11.1619 18.8159)">
<stop stop-color="#C4C4C4" stop-opacity="0.37"/>
<stop offset="1" stop-color="#C4C4C4" stop-opacity="0"/>
</radialGradient>
</defs>
</svg>
