<svg width="68" height="46" viewBox="0 0 68 46" fill="none" xmlns="http://www.w3.org/2000/svg">
<path fill-rule="evenodd" clip-rule="evenodd" d="M40.5058 3.22758C40.8924 2.51024 41.7393 2.19969 42.4841 2.46442L40.9561 5.29957C40.3255 4.82306 40.1192 3.94492 40.5058 3.22758ZM43.3746 4.77362C42.988 5.49096 42.1411 5.80151 41.3963 5.53678L42.9242 2.70163C43.5549 3.17815 43.7611 4.05628 43.3746 4.77362Z" fill="white" fill-opacity="0.2"/>
<path fill-rule="evenodd" clip-rule="evenodd" d="M44.7936 5.25836C44.4485 6.38263 45.0802 7.57376 46.2045 7.91881C47.3287 8.26387 48.5199 7.63219 48.8649 6.50791C49.21 5.38364 48.5783 4.19251 47.454 3.84746C46.3298 3.50241 45.1386 4.13409 44.7936 5.25836ZM44.7936 5.25831C44.8184 5.17746 44.8476 5.09916 44.8808 5.02358C45.3096 4.04824 46.4106 3.52717 47.454 3.84741C48.4974 4.16765 49.1166 5.21665 48.9244 6.26461C48.9095 6.34582 48.8897 6.42701 48.8649 6.50787C48.8401 6.58872 48.8109 6.66703 48.7777 6.7426C48.3489 7.71795 47.2479 8.23901 46.2045 7.91877C45.161 7.59853 44.5419 6.54953 44.7341 5.50157C44.749 5.42037 44.7688 5.33917 44.7936 5.25831ZM47.3073 4.32541C48.0863 4.5645 48.5563 5.33445 48.4421 6.11658L45.3631 5.17161C45.7073 4.46008 46.5283 4.08632 47.3073 4.32541ZM46.3512 7.44077C45.5722 7.20168 45.1022 6.43173 45.2164 5.64961L48.2954 6.59457C47.9511 7.3061 47.1302 7.67986 46.3512 7.44077Z" fill="white" fill-opacity="0.2"/>
<circle cx="45.193" cy="11.7167" r="1.67381" fill="white" fill-opacity="0.2"/>
<path d="M21.4517 4.7135H24.2993V7.25319C24.2993 8.03954 23.6618 8.67701 22.8755 8.67701C22.0891 8.67701 21.4517 8.03955 21.4517 7.25319V4.7135ZM24.2993 4.2135H21.4517V1.67381C21.4517 0.887464 22.0891 0.25 22.8755 0.25C23.6618 0.25 24.2993 0.887463 24.2993 1.67381V4.2135Z" stroke="white" stroke-opacity="0.5" stroke-width="0.5" stroke-linecap="round"/>
<path d="M24.5493 4.4635V1.67381C24.5493 0.749392 23.7999 0 22.8755 0C21.9511 0 21.2017 0.749393 21.2017 1.67381V4.4635H24.5493Z" fill="white" fill-opacity="0.08"/>
<path fill-rule="evenodd" clip-rule="evenodd" d="M4.48263 2.73169C4.48263 2.59362 4.59456 2.48169 4.73263 2.48169H7.542C7.68007 2.48169 7.792 2.59362 7.792 2.73169V4.19239H7.61874H4.6559H4.48263V2.73169ZM9.34874 6.46095C8.3244 6.46095 7.4848 5.68417 7.37945 4.69239H4.89057C4.76743 5.68924 3.9175 6.46095 2.88734 6.46095H2.79354C1.38878 6.46095 0.25 7.59973 0.25 9.00448V10.3823H12.0246V9.00298C12.0246 7.59905 10.8865 6.46095 9.4826 6.46095H9.34874ZM0.25 22.3201V10.8823H12.0246V22.3201H0.25ZM0.25 22.8201H12.0246V24.6651C12.0246 25.0793 11.6888 25.4151 11.2746 25.4151H1C0.585786 25.4151 0.25 25.0793 0.25 24.6651V22.8201Z" fill="white" fill-opacity="0.2"/>
<path d="M32.4881 2.95844L8.25805 43.8804C8.0607 44.2137 8.30094 44.6351 8.68829 44.6351H57.1484C57.5358 44.6351 57.776 44.2137 57.5787 43.8804L33.3486 2.95844C33.155 2.63143 32.6817 2.63143 32.4881 2.95844Z" stroke="white" stroke-opacity="0.5" stroke-width="0.5"/>
<g opacity="0.36" filter="url(#filter0_f)">
<path d="M33.1073 2.23181L8.00012 44.6351H58.2145L33.1073 2.23181Z" fill="url(#paint0_linear)"/>
</g>
<path d="M33.3912 18H32C31.7239 18 31.5 18.2239 31.5 18.5V31.4325C31.5 31.7087 31.7239 31.9325 32 31.9325H33.3912C33.6673 31.9325 33.8912 31.7087 33.8912 31.4325V18.5C33.8912 18.2239 33.6673 18 33.3912 18Z" stroke="white" stroke-opacity="0.5" stroke-width="0.5"/>
<path d="M34.0976 37.3232C34.0976 38.1096 33.4602 38.747 32.6738 38.747C31.8875 38.747 31.25 38.1096 31.25 37.3232C31.25 36.5369 31.8875 35.8994 32.6738 35.8994C33.4602 35.8994 34.0976 36.5369 34.0976 37.3232Z" stroke="white" stroke-opacity="0.5" stroke-width="0.5"/>
<path d="M55.1972 8.84458L48.0018 21.3514L59.5983 28.0467L66.7937 15.5398M55.1972 8.84458L55.8129 7.82217L67.4094 14.5174L66.7937 15.5398M55.1972 8.84458L66.7937 15.5398" stroke="white" stroke-opacity="0.5" stroke-width="0.5"/>
<path fill-rule="evenodd" clip-rule="evenodd" d="M58.8672 21.3677L58.719 21.6243L59.152 21.8743L59.3416 21.546C59.5327 21.6237 59.7215 21.7076 59.9077 21.7976L59.6856 22.1823L60.1186 22.4323L60.3525 22.0272C60.3968 22.0516 60.4409 22.0763 60.4849 22.1014L60.888 22.3313L60.6519 22.7402L61.0849 22.9902L61.3223 22.5791L61.6899 22.7888L59.3207 26.872L58.9627 26.6661L59.1322 26.3725L58.6991 26.1225L58.5292 26.4169L57.9954 26.1099L58.1658 25.8146L57.7328 25.5646L57.5619 25.8606L57.0279 25.5535L57.1993 25.2567L56.7662 25.0067L56.5945 25.3042L56.0606 24.9972L56.2329 24.6987L55.7999 24.4487L55.6272 24.748L55.0933 24.441L55.2666 24.1408L54.8336 23.8908L54.6599 24.1917L54.1261 23.8847L54.3003 23.5829L53.8673 23.3329L53.6926 23.6354L53.1586 23.3283L53.3337 23.0249L52.9007 22.7749L52.7251 23.0791L52.1913 22.7721L52.3674 22.467L51.9344 22.217L51.7579 22.5228L51.224 22.2158L51.4011 21.909L50.9681 21.659L50.7906 21.9665L50.2567 21.6595L50.4348 21.3511L50.0018 21.1011L49.8233 21.4103L49.2894 21.1033L49.4685 20.7932L49.3089 20.701L49.59 20.2191L49.7475 20.31L50.0264 19.8269L49.8712 19.7372L50.1523 19.2553L50.3054 19.3437L50.4292 19.1293L50.9626 19.4372L50.8387 19.6517L51.2717 19.9017L51.3974 19.684C51.5785 19.7821 51.7625 19.8742 51.9491 19.9601L51.805 20.2096L52.238 20.4596L52.4117 20.1588C52.6056 20.2361 52.8018 20.307 53 20.3714L52.7713 20.7675L53.2043 21.0175L53.4833 20.5344L53.4187 20.4971C54.0379 20.6676 54.6743 20.7759 55.3183 20.8195L55.2622 20.9168L55.6952 21.1668L55.8832 20.8412C56.5161 20.8515 57.144 20.9242 57.7581 21.0571L57.7527 21.0664L58.1857 21.3164L58.2639 21.1809C58.467 21.2365 58.6682 21.2988 58.8672 21.3677ZM59.4066 22.6654L59.1277 23.1486L59.5607 23.3986L59.8397 22.9154L59.4066 22.6654ZM58.5697 24.1152L58.8487 23.632L59.2817 23.882L59.0028 24.3652L58.5697 24.1152ZM58.2908 24.5983L58.0118 25.0815L58.4448 25.3315L58.7238 24.8483L58.2908 24.5983ZM60.094 23.7065L60.373 23.2233L60.806 23.4733L60.527 23.9565L60.094 23.7065ZM59.815 24.1899L59.536 24.6731L59.9691 24.9231L60.248 24.4399L59.815 24.1899ZM58.9781 25.6394L59.2571 25.1562L59.6901 25.4062L59.4111 25.8894L58.9781 25.6394ZM56.2285 21.4748L56.5074 20.9916L56.9405 21.2416L56.6615 21.7248L56.2285 21.4748ZM55.9495 21.9582L55.6705 22.4414L56.1035 22.6914L56.3825 22.2082L55.9495 21.9582ZM55.1126 23.4077L55.3916 22.9245L55.8246 23.1745L55.5456 23.6577L55.1126 23.4077ZM57.4738 21.5495L57.1948 22.0327L57.6278 22.2827L57.9068 21.7995L57.4738 21.5495ZM56.6368 22.9993L56.9158 22.5161L57.3488 22.7661L57.0699 23.2493L56.6368 22.9993ZM56.3579 23.4824L56.0789 23.9656L56.5119 24.2156L56.7909 23.7324L56.3579 23.4824ZM58.1611 22.5907L58.4401 22.1075L58.8731 22.3575L58.5941 22.8407L58.1611 22.5907ZM57.8821 23.074L57.6032 23.5572L58.0362 23.8072L58.3151 23.324L57.8821 23.074ZM57.0452 24.5235L57.3242 24.0404L57.7572 24.2904L57.4782 24.7735L57.0452 24.5235ZM52.4924 21.2507L52.2134 21.7339L52.6464 21.9839L52.9254 21.5007L52.4924 21.2507ZM54.0166 20.8423L53.7376 21.3255L54.1706 21.5755L54.4496 21.0923L54.0166 20.8423ZM53.1797 22.2918L53.4587 21.8086L53.8917 22.0586L53.6127 22.5418L53.1797 22.2918ZM54.7042 21.8834L54.9832 21.4002L55.4162 21.6502L55.1372 22.1334L54.7042 21.8834ZM54.4253 22.3665L54.1463 22.8497L54.5793 23.0997L54.8583 22.6165L54.4253 22.3665ZM50.5597 20.1348L50.2808 20.618L50.7138 20.868L50.9927 20.3848L50.5597 20.1348ZM51.2471 21.1759L51.526 20.6927L51.9591 20.9427L51.6801 21.4259L51.2471 21.1759Z" fill="white" fill-opacity="0.2"/>
<defs>
<filter id="filter0_f" x="7.00012" y="1.23181" width="52.2144" height="44.4033" filterUnits="userSpaceOnUse" color-interpolation-filters="sRGB">
<feFlood flood-opacity="0" result="BackgroundImageFix"/>
<feBlend mode="normal" in="SourceGraphic" in2="BackgroundImageFix" result="shape"/>
<feGaussianBlur stdDeviation="0.5" result="effect1_foregroundBlur"/>
</filter>
<linearGradient id="paint0_linear" x1="6.32631" y1="45.751" x2="30.2159" y2="11.3865" gradientUnits="userSpaceOnUse">
<stop stop-color="#C4C4C4" stop-opacity="0.37"/>
<stop offset="1" stop-color="#C4C4C4" stop-opacity="0"/>
</linearGradient>
</defs>
</svg>
