<svg width="11" height="15" viewBox="0 0 11 15" xmlns="http://www.w3.org/2000/svg">
<path fill-rule="evenodd" clip-rule="evenodd" d="M2.1747 1.25C1.66736 1.25 1.25 1.66819 1.25 2.19161C1.25 2.71503 1.66736 3.13322 2.1747 3.13322H9.67121C9.45543 2.88013 9.3253 2.55064 9.3253 2.19161C9.3253 1.83258 9.45543 1.50308 9.67121 1.25H2.1747ZM10.75 0.75H2.1747C1.3845 0.75 0.75 1.39881 0.75 2.19161V12.8084C0.75 13.6041 1.39376 14.25 2.18902 14.25H10.1555C10.6224 14.25 11 13.8708 11 13.4042V3.38322C11 3.24515 10.8881 3.13322 10.75 3.13322C10.2427 3.13322 9.8253 2.71503 9.8253 2.19161C9.8253 1.66819 10.2427 1.25 10.75 1.25C10.8881 1.25 11 1.13807 11 1C11 0.861929 10.8881 0.75 10.75 0.75ZM10.5 3.63322H2.1747C1.82094 3.63322 1.49839 3.50318 1.25 3.28841V12.8084C1.25 13.3289 1.67093 13.75 2.18902 13.75H10.1555C10.3452 13.75 10.5 13.5957 10.5 13.4042V3.63322Z" />
<path d="M4.145 7.61511L3 8.5106V3.5H5.29V8.5106L4.145 7.61511Z" />
</svg>
