<svg width="14" height="11" viewBox="0 0 14 11" xmlns="http://www.w3.org/2000/svg">
<path fill-rule="evenodd" clip-rule="evenodd" d="M0.0881874 5.65621C0.248946 5.41507 0.574747 5.34991 0.815885 5.51067L6.82181 9.51462L12.8277 5.51067C13.0689 5.34991 13.3947 5.41507 13.5554 5.65621C13.7162 5.89735 13.651 6.22315 13.4099 6.38391L7.11289 10.5819C6.93663 10.6994 6.70699 10.6994 6.53073 10.5819L0.233727 6.38391C-0.00741088 6.22315 -0.0725711 5.89735 0.0881874 5.65621Z"/>
<path fill-rule="evenodd" clip-rule="evenodd" d="M0.0881874 2.85751C0.248946 2.61637 0.574747 2.55121 0.815885 2.71197L6.82181 6.71592L12.8277 2.71197C13.0689 2.55121 13.3947 2.61637 13.5554 2.85751C13.7162 3.09864 13.651 3.42445 13.4099 3.5852L7.11289 7.78321C6.93663 7.90072 6.70699 7.90072 6.53073 7.78321L0.233727 3.5852C-0.00741088 3.42445 -0.0725711 3.09864 0.0881874 2.85751Z"/>
<path fill-rule="evenodd" clip-rule="evenodd" d="M0.0881874 0.233727C0.248946 -0.00741088 0.574747 -0.0725711 0.815885 0.0881874L6.82181 4.09214L12.8277 0.0881874C13.0689 -0.0725711 13.3947 -0.00741088 13.5554 0.233727C13.7162 0.474865 13.651 0.800666 13.4099 0.961425L7.11289 5.15943C6.93663 5.27694 6.70699 5.27694 6.53073 5.15943L0.233727 0.961425C-0.00741088 0.800666 -0.0725711 0.474865 0.0881874 0.233727Z"/>
</svg>
