<svg width="13" height="9" viewBox="0 0 13 9" xmlns="http://www.w3.org/2000/svg">
<path fill-rule="evenodd" clip-rule="evenodd" d="M7.49322 5.08362L7.66257 5.23403C7.97032 5.50737 8.16667 5.88662 8.29525 6.24981C8.42527 6.61704 8.49639 6.99781 8.53588 7.30458C8.61216 7.89718 8.12925 8.3501 7.58418 8.3501H5.73157C5.18651 8.3501 4.7036 7.89718 4.77988 7.30458C4.81895 7.00106 4.88897 6.62524 5.01628 6.26179C5.14223 5.90223 5.3339 5.52668 5.6332 5.25208L5.79969 5.09933L6.00743 5.18819C6.19924 5.27023 6.4107 5.31582 6.63372 5.31582C6.86706 5.31582 7.08781 5.26591 7.28664 5.1765L7.49322 5.08362Z"/>
<path fill-rule="evenodd" clip-rule="evenodd" d="M8.14899 3.72214C8.14899 4.55965 7.47005 5.23859 6.63254 5.23859C5.79503 5.23859 5.11609 4.55965 5.11609 3.72214C5.11609 2.88463 5.79503 2.20569 6.63254 2.20569C7.47005 2.20569 8.14899 2.88463 8.14899 3.72214Z"/>
<path fill-rule="evenodd" clip-rule="evenodd" d="M3.72131 3.87793L3.89066 4.02834C4.1984 4.30168 4.39476 4.68093 4.52334 5.04412C4.65336 5.41135 4.72448 5.79212 4.76397 6.09889C4.84025 6.69149 4.35734 7.14441 3.81227 7.14441H1.95966C1.4146 7.14441 0.931691 6.69149 1.00797 6.09889C1.04704 5.79537 1.11706 5.41955 1.24437 5.0561C1.37032 4.69654 1.56199 4.32099 1.86129 4.04639L2.02778 3.89364L2.23552 3.9825C2.42732 4.06454 2.63879 4.11013 2.86181 4.11013C3.09515 4.11013 3.3159 4.06022 3.51472 3.97082L3.72131 3.87793Z"/>
<path fill-rule="evenodd" clip-rule="evenodd" d="M4.37708 2.51645C4.37708 3.35397 3.69814 4.0329 2.86063 4.0329C2.02312 4.0329 1.34418 3.35397 1.34418 2.51645C1.34418 1.67894 2.02312 1 2.86063 1C3.69814 1 4.37708 1.67894 4.37708 2.51645Z"/>
<path fill-rule="evenodd" clip-rule="evenodd" d="M11.2651 3.87793L11.4345 4.02834C11.7422 4.30168 11.9386 4.68093 12.0672 5.04412C12.1972 5.41135 12.2683 5.79212 12.3078 6.09889C12.3841 6.69149 11.9012 7.14441 11.3561 7.14441H9.50349C8.95842 7.14441 8.47551 6.69149 8.55179 6.09889C8.59086 5.79537 8.66088 5.41955 8.7882 5.0561C8.91415 4.69654 9.10581 4.32099 9.40511 4.04639L9.5716 3.89364L9.77935 3.9825C9.97115 4.06454 10.1826 4.11013 10.4056 4.11013C10.639 4.11013 10.8597 4.06022 11.0585 3.97082L11.2651 3.87793Z"/>
<path fill-rule="evenodd" clip-rule="evenodd" d="M11.9209 2.51645C11.9209 3.35397 11.242 4.0329 10.4045 4.0329C9.56694 4.0329 8.888 3.35397 8.888 2.51645C8.888 1.67894 9.56694 1 10.4045 1C11.242 1 11.9209 1.67894 11.9209 2.51645Z"/>
</svg>
