<svg width="9" height="8" viewBox="0 0 9 8" >
<path fill-rule="evenodd" clip-rule="evenodd" d="M4.24998 0.333374C6.27502 0.333374 7.91665 1.975 7.91665 4.00004C7.91665 6.02508 6.27502 7.66671 4.24998 7.66671C2.22494 7.66671 0.583313 6.02508 0.583313 4.00004C0.583313 1.975 2.22494 0.333374 4.24998 0.333374ZM1.27186 3.63584C1.36904 3.76022 1.63925 3.91937 2.05273 4.04921C2.21554 4.10034 2.39385 4.14528 2.58516 4.18345C2.58393 4.12267 2.58331 4.06152 2.58331 4.00004C2.58331 2.89083 2.78517 1.88914 3.13483 1.21414C2.13802 1.61351 1.4054 2.53237 1.27186 3.63584ZM2.62636 4.87032C2.09109 4.77728 1.63213 4.63647 1.2843 4.4553C1.4461 5.5181 2.16557 6.39761 3.13483 6.78594C2.87954 6.29311 2.70303 5.62614 2.62636 4.87032ZM3.30962 4.95915C3.60865 4.98609 3.92361 5.00004 4.24998 5.00004C4.57109 5.00004 4.88746 4.98184 5.19174 4.94809C5.04138 6.14728 4.62565 7.00004 4.24998 7.00004C3.87547 7.00004 3.46113 6.15252 3.30962 4.95915ZM5.24541 4.26821C4.92889 4.3092 4.59266 4.33337 4.24998 4.33337C3.9019 4.33337 3.56778 4.31614 3.25508 4.28345C3.25172 4.19023 3.24998 4.0957 3.24998 4.00004C3.24998 2.32804 3.78118 1.00004 4.24998 1.00004C4.71878 1.00004 5.24998 2.32804 5.24998 4.00004C5.24998 4.09049 5.24843 4.17993 5.24541 4.26821ZM5.87639 4.84234C5.80126 5.60967 5.62357 6.28704 5.36513 6.78594C6.3515 6.39075 7.07918 5.4869 7.2237 4.39885C6.87032 4.58266 6.40488 4.73636 5.87639 4.84234ZM7.22615 3.62009C7.0693 3.79615 6.57454 4.00529 5.91539 4.15142C5.91622 4.1012 5.91665 4.05073 5.91665 4.00004C5.91665 2.89083 5.71479 1.88914 5.36513 1.21414C6.35719 1.61161 7.08757 2.52363 7.22615 3.62009Z" />
</svg>
