<svg width="15" height="10" viewBox="0 0 15 10" >
<path fill-rule="evenodd" clip-rule="evenodd" d="M1.75146 0.91268C1.7958 0.793795 1.92216 0.726978 2.04538 0.757266L4.09574 1.26127L5.77728 1.50126L7.42361 1.58534C7.47091 1.53149 7.53928 1.50036 7.61141 1.50036H7.7033C7.78579 1.50036 7.86297 1.54105 7.90958 1.60911L8.01226 1.75907L8.89769 1.7946C9.00405 1.79887 9.09604 1.87002 9.12691 1.97189C9.12851 1.97716 9.12993 1.98245 9.13117 1.98776C9.16446 1.99028 9.19746 1.99948 9.2281 2.01549C9.31058 2.05861 9.36228 2.14398 9.36228 2.23705V2.2386L9.40259 2.25432L9.63158 2.17363C9.68179 2.15594 9.73633 2.15473 9.78726 2.17019L10.1548 2.28172C10.2542 2.31189 10.3246 2.40041 10.3317 2.50407C10.3346 2.54786 10.326 2.5905 10.308 2.62841C10.3502 2.66151 10.3814 2.70793 10.3955 2.76162L10.432 2.90069C10.501 2.92215 10.5601 2.9732 10.5894 3.04497L10.7425 3.42013C10.7589 3.46019 10.7644 3.50341 10.7591 3.54558L10.9304 3.43693L10.9946 3.37821C10.9675 3.32707 10.9587 3.26753 10.9709 3.20976C10.9869 3.13346 11.0376 3.069 11.108 3.03546L11.3632 2.91378C11.3968 2.89777 11.4336 2.88946 11.4708 2.88946H11.5049C11.4815 2.80185 11.5073 2.70622 11.5761 2.64216L11.9028 2.33798C11.9309 2.31182 11.9647 2.29248 12.0015 2.28146L12.5663 2.1123L12.7115 1.92005V1.50701C12.7115 1.36894 12.8234 1.25701 12.9615 1.25701H13.0402L13.1058 1.20695C13.166 1.16092 13.2439 1.14472 13.3175 1.16292C13.3911 1.18112 13.4525 1.23174 13.4844 1.30054L13.6861 1.73612L13.9142 1.8689C13.9795 1.90692 14.0241 1.97243 14.0356 2.04712C14.047 2.12181 14.0241 2.19766 13.9731 2.25348L13.677 2.57794C13.6659 2.59013 13.6536 2.60119 13.6403 2.61095L13.4492 2.75121L13.369 2.89453C13.4649 2.91415 13.5424 2.98886 13.5634 3.08761L13.6042 3.28026C13.6289 3.39683 13.5679 3.51464 13.4585 3.56174L13.1994 3.67322L13.0714 3.80826C13.0613 3.81898 13.0502 3.82879 13.0383 3.83755L12.8235 3.99582V4.24465C12.8235 4.30671 12.8004 4.36655 12.7587 4.41253L12.6728 4.50736C12.6823 4.54476 12.6831 4.58395 12.6749 4.62184L12.6052 4.9448L12.782 5.21189C12.8477 5.31127 12.8342 5.44326 12.7496 5.52724L12.6397 5.63642V5.73515C12.6397 5.82894 12.5872 5.91484 12.5037 5.95762L12.3194 6.05208C12.304 6.14047 12.2417 6.21519 12.1548 6.24521L12.0189 6.29215L11.9721 6.3903C11.965 6.40524 11.9564 6.41942 11.9465 6.43266L11.6302 6.85446L11.5954 7.17227L11.8567 7.63074L12.1677 8.08906C12.1958 8.13048 12.2109 8.17939 12.2109 8.22944V8.64516C12.2109 8.68724 12.2003 8.72863 12.18 8.76551L12.0575 8.98858C12.0136 9.06854 11.9296 9.11823 11.8384 9.11823H11.6444C11.5424 9.11823 11.4506 9.05625 11.4125 8.96163L11.3737 8.86537L11.1741 8.69192C11.1539 8.67441 11.1367 8.6538 11.1231 8.63086L10.8883 8.23542C10.8653 8.19679 10.8532 8.1527 10.8532 8.10777V7.88855L10.7135 7.78447L10.6058 7.71177L10.5017 7.785C10.4328 7.83352 10.344 7.84399 10.2656 7.81286L10.0146 7.71314L9.57642 7.75219C9.58632 7.78522 9.58948 7.82063 9.58477 7.85646C9.57014 7.96773 9.48314 8.05562 9.37202 8.07139L8.9432 8.13222C8.9101 8.13692 8.8764 8.13493 8.84408 8.12637L8.41609 8.01303H8.16426L7.59271 8.31935L7.2866 8.54735L7.26864 8.71233L7.31739 8.77395C7.36138 8.82955 7.37969 8.90121 7.36777 8.9711C7.35585 9.04098 7.31482 9.10252 7.25489 9.1404L7.14258 9.21137C7.07218 9.25586 6.98426 9.26238 6.90807 9.22875L6.54051 9.06652C6.50552 9.05108 6.47454 9.02781 6.44995 8.99851L6.24575 8.75516C6.23333 8.74035 6.22266 8.72415 6.21397 8.70689L6.00296 8.28779L5.81361 7.96233H5.76295L5.73346 8.01211C5.68845 8.0881 5.60668 8.1347 5.51836 8.1347H5.31416C5.25431 8.1347 5.19644 8.11323 5.15108 8.07419L4.84478 7.81056C4.7896 7.76307 4.75786 7.69388 4.75786 7.62108V7.48254L4.52764 7.22216H4.41138C4.36114 7.31595 4.25574 7.36878 4.14865 7.35034L3.3829 7.21853C3.35294 7.21338 3.32418 7.2028 3.29802 7.18732L2.36729 6.63668L1.87911 6.50359C1.80014 6.48207 1.73671 6.42324 1.7093 6.34612L1.61303 6.07524L1.40345 5.92512C1.43294 5.96671 1.44953 6.01705 1.44953 6.06975V6.12044C1.44953 6.22159 1.38858 6.31278 1.29512 6.35145L1.1726 6.40215C1.13266 6.41867 1.08911 6.42456 1.04621 6.41924L0.964535 6.4091C0.921568 6.40376 0.880722 6.38736 0.845999 6.3615L0.764319 6.30066C0.738017 6.28107 0.715875 6.25654 0.699101 6.22849H0.678822C0.592902 6.22849 0.513002 6.18437 0.467238 6.11165L0.453903 6.09047C0.380738 6.12715 0.293628 6.12586 0.221125 6.08585L0.129235 6.03516C0.0603006 5.99713 0.013309 5.92884 0.00240973 5.85087C-0.00848953 5.7729 0.017977 5.69435 0.07384 5.63887L0.16573 5.54762C0.234923 5.4789 0.337756 5.45669 0.429141 5.49073L0.510821 5.52114C0.552352 5.53661 0.587947 5.56234 0.615163 5.59482C0.701475 5.55969 0.803158 5.57485 0.876052 5.64L0.941026 5.69807H0.954492C0.987292 5.69807 1.01977 5.70453 1.05008 5.71707L1.1726 5.76777C1.18282 5.772 1.19275 5.7769 1.20233 5.78245L1.21255 5.78837L1.05395 5.67476C0.98841 5.62781 0.949532 5.55214 0.949532 5.47152V5.27687L0.797785 4.79651C0.793379 4.78257 0.790206 4.76826 0.788301 4.75376L0.730327 4.31236L0.605814 3.95092C0.596789 3.92472 0.592182 3.8972 0.592182 3.86949V3.4335C0.592182 3.36455 0.620658 3.29866 0.670876 3.25142L0.786172 3.14294V2.69332C0.786172 2.63454 0.806882 2.57765 0.844665 2.53262L1.07184 2.26189L1.27625 1.70586V1.11157C1.27625 1.02659 1.31942 0.947434 1.39086 0.901411C1.46229 0.855388 1.55222 0.848804 1.6296 0.883933L1.74299 0.935409L1.75146 0.91268ZM1.77625 1.49962V1.75036C1.77625 1.77979 1.77105 1.80899 1.7609 1.83662L1.52607 2.4754C1.5161 2.50252 1.5015 2.52771 1.48293 2.54984L1.28617 2.78432V3.25099C1.28617 3.31994 1.2577 3.38583 1.20748 3.43307L1.09218 3.54155V3.82764L1.21128 4.17337C1.21675 4.18923 1.2206 4.2056 1.22278 4.22224L1.28118 4.66686L1.43792 5.16301C1.44562 5.18737 1.44953 5.21277 1.44953 5.23832V5.34308L1.96793 5.71442C2.00942 5.74414 2.04082 5.78585 2.05791 5.83394L2.13667 6.05556L2.53133 6.16315C2.55291 6.16903 2.57361 6.17779 2.59287 6.18918L3.51304 6.73358L4.04046 6.82437C4.08679 6.76114 4.16119 6.72216 4.24211 6.72216H4.6403C4.71194 6.72216 4.78014 6.75289 4.82759 6.80656L5.19515 7.22228C5.23556 7.26798 5.25786 7.32687 5.25786 7.38787V7.5064L5.38636 7.617L5.40536 7.58492C5.45038 7.50893 5.53214 7.46233 5.62046 7.46233H5.95739C6.04641 7.46233 6.12872 7.50967 6.17348 7.58661L6.43894 8.04289C6.44148 8.04724 6.44388 8.05168 6.44615 8.05618L6.64747 8.45605L6.77681 8.61018L6.80133 8.3849C6.80885 8.31581 6.84479 8.25297 6.90053 8.21145L7.30893 7.90727C7.31884 7.89989 7.32928 7.89326 7.34017 7.88742L7.9834 7.54268C8.01972 7.52322 8.06029 7.51303 8.10149 7.51303H8.44863C8.47024 7.51303 8.49175 7.51583 8.51263 7.52136L8.92312 7.63007L8.97224 7.6231L9.01343 7.46631C9.04021 7.36436 9.12804 7.29017 9.23303 7.28081L10.0294 7.20983C10.0684 7.20636 10.1076 7.21207 10.1439 7.22651L10.3246 7.29829L10.4591 7.20367C10.544 7.14398 10.6569 7.1429 10.7429 7.20097L11.0077 7.37981L11.2348 7.54928L11.1209 7.34944C11.0948 7.30366 11.0838 7.25082 11.0895 7.19844L11.1406 6.73203C11.1455 6.68749 11.1622 6.64509 11.1891 6.60925L11.5315 6.1526L11.6127 5.9824C11.6415 5.92195 11.6934 5.87559 11.7567 5.85373L11.8332 5.82731C11.8522 5.76233 11.8971 5.7067 11.9591 5.6749L12.1397 5.58236V5.53236C12.1397 5.46575 12.1663 5.4019 12.2135 5.35497L12.2519 5.31688L12.1302 5.13293C12.093 5.07679 12.0801 5.00804 12.0943 4.94224L12.1717 4.58354L12.1527 4.52699C12.1239 4.44123 12.1437 4.3466 12.2044 4.27956L12.3235 4.14822V3.86949C12.3235 3.79006 12.3612 3.71535 12.4252 3.66823L12.7238 3.4482L12.8719 3.29195C12.8825 3.28072 12.8942 3.27054 12.9066 3.26151C12.9004 3.25036 12.895 3.23864 12.8904 3.22641L12.819 3.03376C12.7935 2.96508 12.7994 2.88868 12.8352 2.82475L13.0394 2.45973C13.0568 2.42852 13.0808 2.40142 13.1096 2.38025L13.3244 2.22257L13.395 2.1452L13.3666 2.12864C13.3223 2.10287 13.2871 2.06413 13.2655 2.01766L13.2115 1.90092V2.00384C13.2115 2.05822 13.1937 2.11111 13.161 2.15451L12.9159 2.47897C12.8839 2.52142 12.8391 2.55253 12.7881 2.56779L12.2008 2.7437L12.0611 2.8738C12.1073 2.96442 12.0941 3.07455 12.0267 3.15175L11.894 3.30384C11.8465 3.35824 11.7778 3.38946 11.7056 3.38946H11.5877C11.5916 3.46179 11.5642 3.53513 11.5067 3.58765L11.2514 3.82085C11.2407 3.83069 11.2291 3.83957 11.2167 3.84738L10.8492 4.08059C10.839 4.08707 10.8283 4.0928 10.8173 4.09774L10.6131 4.18899C10.5388 4.22219 10.453 4.21716 10.3831 4.17551L10.2299 4.08426C10.1221 4.01999 10.0786 3.88571 10.1284 3.77044L10.2098 3.58165C10.116 3.58743 10.0256 3.53983 9.97785 3.45679L9.93701 3.38581C9.90264 3.32608 9.89445 3.25481 9.91438 3.18883L9.95524 3.0536L9.94957 3.03204L9.91651 3.02384L9.8824 3.08899L9.7601 3.42097L9.84658 3.81603C9.86277 3.88997 9.84458 3.96727 9.79713 4.02623C9.74967 4.0852 9.67805 4.11949 9.60236 4.11949H9.3369C9.20921 4.11949 9.10204 4.02327 9.08835 3.89631L9.02709 3.3285C9.02294 3.29012 9.02775 3.25131 9.04112 3.2151L9.22349 2.72116L9.02142 2.64232C9.01023 2.63796 8.99949 2.63284 8.98924 2.62705L8.84658 2.72623C8.79373 2.76297 8.72874 2.7779 8.66516 2.76793L8.27717 2.7071C8.17723 2.69143 8.09658 2.61706 8.07287 2.51871C8.05012 2.42435 8.08408 2.32576 8.15914 2.26537L7.86685 2.25364C7.78796 2.25047 7.7152 2.21023 7.6706 2.14509L7.62401 2.07705C7.59341 2.08798 7.56056 2.09299 7.52719 2.09129L5.74044 2.00003C5.73289 1.99964 5.72536 1.99892 5.71787 1.99785L4.0128 1.7545C4.00461 1.75333 3.99648 1.75176 3.98845 1.74978L2.14217 1.29594L2.11784 1.36116C2.09362 1.4261 2.04354 1.47807 1.97953 1.50466C1.91553 1.53126 1.84337 1.53009 1.78026 1.50144L1.77625 1.49962ZM11.3532 7.75698C11.3532 7.759 11.3532 7.76101 11.3532 7.76303V8.03913L11.5324 8.34092L11.7109 8.49596V8.30626L11.4375 7.90341C11.4338 7.89802 11.4304 7.89249 11.4272 7.88683L11.3532 7.75698ZM1.46225 6.46686C1.5149 6.45292 1.57066 6.45655 1.62106 6.47721L2.26429 6.74083C2.35817 6.7793 2.41948 6.8707 2.41948 6.97216V7.8519C2.49575 7.83762 2.57668 7.85928 2.63628 7.91499L2.98342 8.23945C2.98907 8.24473 2.99447 8.25026 2.9996 8.25604L3.15275 8.42841C3.20499 8.48721 3.22652 8.56717 3.21086 8.64425C3.19519 8.72133 3.14417 8.78654 3.07312 8.82029L2.83829 8.93182C2.72764 8.98437 2.59521 8.94901 2.52548 8.8483L2.42504 8.70321L2.14797 8.41856L2.07144 8.34763H1.86265L1.77621 8.37625C1.77537 8.41953 1.76329 8.46225 1.74063 8.50002C1.70644 8.55699 1.65098 8.59802 1.58649 8.61403L1.38229 8.66473C1.32493 8.67897 1.26499 8.67231 1.21281 8.64696L1.09622 8.71166C1.07012 8.72615 1.04163 8.73584 1.01211 8.74029L0.338251 8.84168C0.209868 8.861 0.0880633 8.77883 0.0578955 8.65255C0.0277276 8.52628 0.0992373 8.39793 0.222488 8.35713L0.714684 8.1942L0.66153 8.13863C0.630785 8.10649 0.609171 8.06673 0.598917 8.02346L0.517237 7.67872C0.494083 7.58099 0.531718 7.4797 0.61116 7.42058L0.59299 7.19502C0.58604 7.10874 0.623897 7.02845 0.687907 6.97819C0.6582 6.91577 0.655502 6.84335 0.681355 6.77836C0.710635 6.70475 0.773072 6.64937 0.849653 6.62909L1.46225 6.46686ZM1.04545 7.73937L1.06979 7.84209L1.21682 7.99579C1.23472 8.0145 1.24933 8.03556 1.26044 8.05812C1.27041 8.05559 1.2805 8.05368 1.29065 8.0524C1.31987 8.01604 1.35953 7.98749 1.40685 7.97183L1.74378 7.8603C1.76912 7.85191 1.79565 7.84763 1.82234 7.84763H1.91948V7.13988L1.50911 6.97169L1.30249 7.02641C1.33408 7.09235 1.33538 7.16938 1.30503 7.2369C1.28096 7.29042 1.23923 7.33303 1.18794 7.35843C1.21052 7.3952 1.2236 7.4378 1.22482 7.48242C1.22726 7.57168 1.18191 7.65547 1.10584 7.70224L1.04545 7.73937Z" />
</svg>
