<svg width="9" height="10" viewBox="0 0 9 10" >
<path opacity="0.8" fill-rule="evenodd" clip-rule="evenodd" d="M4.5 1.25C2.29086 1.25 0.5 3.04086 0.5 5.25C0.5 7.45914 2.29086 9.25 4.5 9.25C6.70914 9.25 8.5 7.45914 8.5 5.25C8.5 3.04086 6.70914 1.25 4.5 1.25ZM0 5.25C0 2.76472 2.01472 0.75 4.5 0.75C6.98528 0.75 9 2.76472 9 5.25C9 7.73528 6.98528 9.75 4.5 9.75C2.01472 9.75 0 7.73528 0 5.25Z" />
<path opacity="0.8" d="M5.63438 4.69813L5.42313 5.64063H6.28438L6.325 5.68937L6.2925 6.03875H5.33375L5.025 7.40375H4.65125L4.61063 7.34688L4.90313 6.03875H4.00938L3.70875 7.40375H3.32688L3.28625 7.34688L3.57875 6.03875H2.79875L2.75 5.99813L2.7825 5.64063H3.66813L3.87938 4.69813H3.08313L3.03438 4.64937L3.06688 4.3H3.96875L4.26125 3H4.635L4.67563 3.065L4.39938 4.3H5.285L5.5775 3H5.95125L6 3.065L5.72375 4.3H6.56875L6.6175 4.34875L6.57688 4.69813H5.63438ZM5.20375 4.69813H4.31L4.09875 5.64063H4.9925L5.20375 4.69813Z" />
</svg>
