<svg width="13" height="6" viewBox="0 0 13 6" >
<path d="M12.0135 5.34694L12.1121 5.04082L12.053 5.32653L12.0135 5.34694ZM12.25 3.77551V4.18367L12.2106 3.79592L12.25 3.77551ZM11.718 5.44898L11.1071 5.65306L11.0677 5.77551L10.5554 6L10.5948 5.22449L9.84606 4.85714L9.86576 5.10204L8.99877 4.46939L9.70812 3.97959L9.39286 3.63265L8.82143 3.51021L9.25492 3L8.84112 2.83674L8.64408 2.18368L9.05788 1.2449L9.1564 0.489798L8.64408 1.44898L8.32881 1.36735L8.30911 1.91837L7.8362 1.97959L8.30911 2.46939L8.15147 3.20408L8.48645 4.40816L8.86084 5.04082L8.21059 4.65306L9.23521 5.59184L9.29434 5.89796L8.58497 5.53061L7.8362 5.4898L7.20566 4.85714L6.83128 5.32653L6.59483 4.93878L7.02833 4.10204L7.00862 3.77551L7.22537 3.40816L6.67364 3.38776L5.53078 2.87755L5.58989 2.55102L4.86084 2.38776L4.38793 1.51021L3.61945 1.36735L2.9101 1.77551L2.8904 2.10204L2.33866 2.16327L2.0431 1.89796L1.68842 2.63265L1.41257 2.57143L0.525867 3.67347L0.25 1.95918L4.56527 1.10204L9.43226 0L10.5948 4.14286L12.1515 3.79592L12.1318 4.55102L11.915 4.65306L11.718 5.44898Z" />
</svg>
